<?xml version="1.0" encoding="UTF-8"?><!DOCTYPE svg PUBLIC "-//W3C//DTD SVG 1.1//EN" "http://www.w3.org/Graphics/SVG/1.1/DTD/svg11.dtd"><svg xmlns="http://www.w3.org/2000/svg" xmlns:xlink="http://www.w3.org/1999/xlink"><symbol id="icon-arrow-left" viewBox="0 0 34 20">
    <path d="M8.017 15.675L2.475 9.9l5.542-5.775"/>
    <path d="M2.475 9.9H33"/>
</symbol><symbol id="icon-arrow-right" viewBox="0 0 34 20">
    <path d="M25.983 4.125L31.525 9.9l-5.542 5.775"/>
    <path d="M31.525 9.9H1"/>
</symbol><symbol id="icon-check" viewBox="0 0 13 14">
    <path d="M10.98.914c.224-.268.523-.417.833-.414.31.003.607.157.829.43.221.273.35.644.358 1.033.008.39-.105.768-.314 1.056l-6.363 10c-.11.149-.242.268-.389.35a.984.984 0 0 1-.936.022 1.215 1.215 0 0 1-.398-.331L.38 7.757a1.546 1.546 0 0 1-.276-.488 1.848 1.848 0 0 1-.016-1.175c.06-.187.149-.357.262-.5.114-.143.25-.255.398-.33a.984.984 0 0 1 .47-.11c.16.004.318.048.465.13.147.082.279.2.388.348l3.34 4.195L10.948.959c.01-.016.02-.03.032-.045h-.002z"/>
</symbol><symbol id="icon-chevron-down" viewBox="0 0 12 7">
    <path d="M10.666 1L6.024 5.642 1.382 1"/>
</symbol><symbol id="icon-chevron-left" viewBox="0 0 17 31">
    <path d="M15.591 1.208L1.376 15.425 15.591 29.64"/>
</symbol><symbol id="icon-chevron-right" viewBox="0 0 17 31">
    <path d="M1.409 29.792l14.216-14.217L1.409 1.36"/>
</symbol><symbol id="icon-divider" viewBox="0 0 2 38">
    <rect width="2" height="38" rx="1"/>
</symbol><symbol id="icon-hamb1" viewBox="0 0 21 3">
    <path d="M19.654 2.692H1.346a1.346 1.346 0 1 1 0-2.692h18.308a1.346 1.346 0 1 1 0 2.692z"/>
</symbol><symbol id="icon-hamb2" viewBox="0 0 21 3">
    <path d="M12.115 2.693H1.346a1.346 1.346 0 1 1 0-2.692h10.77a1.346 1.346 0 1 1 0 2.692z"/>
    <path d="M19.654 2.692H17.5A1.346 1.346 0 1 1 17.5 0h2.154a1.346 1.346 0 1 1 0 2.692z"/>
</symbol><symbol id="icon-hamb3" viewBox="0 0 21 3">
    <path d="M19.654 2.692H1.346a1.346 1.346 0 1 1 0-2.692h18.308a1.346 1.346 0 1 1 0 2.692z"/>
</symbol><symbol id="icon-logo" viewBox="0 0 130 44">
    <path d="M12.152 14.344h3.48c2.432 0 4.28.36 5.544 1.08 1.264.72 1.896 1.64 1.896 2.76 0 1.12-.632 2.04-1.896 2.76-1.264.72-3.112 1.08-5.544 1.08h-1.704V28h-1.776V14.344zm3.48 6.96c.816 0 1.56-.056 2.232-.168.688-.112 1.28-.288 1.776-.528.496-.256.88-.584 1.152-.984.288-.4.432-.88.432-1.44 0-.56-.144-1.032-.432-1.416-.272-.4-.656-.72-1.152-.96-.496-.256-1.088-.44-1.776-.552a13.912 13.912 0 0 0-2.232-.168h-1.704v6.216h1.704z"/>
    <path d="M24.715 14.344h9.624v1.392l-7.848-.6v5.544h6.096l-.144 1.392-5.952-.6v5.76l7.968-.624-.12 1.392h-9.624V14.344z"/>
    <path d="M36.949 14.344h2.904c2.432 0 4.28.36 5.544 1.08 1.264.72 1.896 1.64 1.896 2.76 0 .944-.448 1.752-1.344 2.424-.88.656-2.192 1.088-3.936 1.296.32.048.6.12.84.216.256.08.488.2.696.36.224.144.44.328.648.552.208.208.432.464.672.768.224.288.456.592.696.912.256.304.496.6.72.888.24.288.448.544.624.768.176.208.296.352.36.432.288.336.608.6.96.792.368.192.72.288 1.056.288l-.48.144a3.035 3.035 0 0 1-.432.072c-.16.032-.312.048-.456.048-.56 0-1.08-.112-1.56-.336-.48-.224-.976-.664-1.488-1.32l-.624-.768-.6-.768a38.59 38.59 0 0 0-.672-.84 8.576 8.576 0 0 0-.888-1.008 3.578 3.578 0 0 0-.744-.624 2.203 2.203 0 0 0-.672-.336 2.898 2.898 0 0 0-.648-.12h-1.296V28h-1.776V14.344zm1.776 6.96h1.128c.816 0 1.56-.056 2.232-.168.688-.112 1.28-.288 1.776-.528.496-.256.88-.584 1.152-.984.288-.4.432-.88.432-1.44 0-.56-.144-1.032-.432-1.416-.272-.4-.656-.72-1.152-.96-.496-.256-1.088-.44-1.776-.552a13.912 13.912 0 0 0-2.232-.168h-1.128v6.216z"/>
    <path d="M49.863 14.344h9.744l-.144 1.2-7.824-.456v5.592h6.096l-.144 1.2-5.952-.432V28h-1.776V14.344z"/>
    <path d="M61.441 14.344h9.624v1.392l-7.848-.6v5.544h6.096l-.144 1.392-5.952-.6v5.76l7.968-.624-.12 1.392h-9.624V14.344z"/>
    <path d="M79.574 14.344c.88 0 1.72.144 2.52.432.816.288 1.52.688 2.112 1.2v2.352a6.234 6.234 0 0 0-1.032-1.296c-.384-.4-.8-.744-1.248-1.032a5.592 5.592 0 0 0-1.392-.672 4.53 4.53 0 0 0-1.44-.24c-.784 0-1.48.144-2.088.432a4.061 4.061 0 0 0-1.488 1.152c-.4.48-.704 1.048-.912 1.704a7.238 7.238 0 0 0-.288 2.088c0 1.024.16 1.952.48 2.784.32.832.744 1.544 1.272 2.136a5.666 5.666 0 0 0 1.8 1.368 5.177 5.177 0 0 0 2.112.456 4.35 4.35 0 0 0 1.176-.168c.4-.128.792-.288 1.176-.48a8.519 8.519 0 0 0 1.056-.672c.336-.256.608-.504.816-.744v1.176c-.624.528-1.368.944-2.232 1.248a8.009 8.009 0 0 1-2.592.432c-.944 0-1.84-.176-2.688-.528a7.7 7.7 0 0 1-2.208-1.464 7.022 7.022 0 0 1-1.512-2.16 6.512 6.512 0 0 1-.552-2.664c0-.944.192-1.832.576-2.664a7.12 7.12 0 0 1 1.584-2.16 7.235 7.235 0 0 1 2.28-1.464 6.85 6.85 0 0 1 2.712-.552z"/>
    <path d="M98.428 15.736l-5.52-.624V28h-1.776V15.136l-5.496.6v-1.392h12.792v1.392z"/>
    <path d="M101.842 14.344v8.376c0 .64.096 1.232.288 1.776.208.528.504.984.888 1.368.384.384.856.68 1.416.888.576.208 1.232.312 1.968.312s1.36-.104 1.872-.312a3.51 3.51 0 0 0 1.296-.912c.336-.384.584-.84.744-1.368.16-.544.24-1.136.24-1.776v-8.352h.888v8.352c0 .784-.112 1.504-.336 2.16a4.305 4.305 0 0 1-1.032 1.68c-.464.464-1.056.824-1.776 1.08-.704.256-1.544.384-2.52.384-.96 0-1.8-.128-2.52-.384-.72-.272-1.32-.64-1.8-1.104a4.588 4.588 0 0 1-1.056-1.656 6.648 6.648 0 0 1-.336-2.16v-8.352h1.776z"/>
    <path d="M115.791 14.344l5.952 9.864 5.952-9.864h1.8V28h-1.776V15.952l-6.456 10.704-6.432-10.368V28h-.888V14.344h1.848z"/>
    <path fill-rule="evenodd" clip-rule="evenodd" d="M.5.5H22v1H1.5v41H22v1H.5V.5z"/>
</symbol><symbol id="icon-photo" viewBox="0 0 63 63">
    <path d="M5.25 19.75a4 4 0 0 1 4-4h6.984a4 4 0 0 0 3.328-1.781l2.875-4.313a4 4 0 0 1 3.329-1.781h11.468a4 4 0 0 1 3.328 1.781l2.876 4.313a4 4 0 0 0 3.328 1.781h6.984a4 4 0 0 1 4 4v31.375a4 4 0 0 1-4 4H9.25a4 4 0 0 1-4-4V19.75z"/>
    <circle cx="31.5" cy="34.125" r="10.5"/>
</symbol><symbol id="icon-play" viewBox="0 0 40 40">
    <path fill-rule="evenodd" clip-rule="evenodd" d="M20 38c9.941 0 18-8.059 18-18S29.941 2 20 2 2 10.059 2 20s8.059 18 18 18zm0 2c11.046 0 20-8.954 20-20S31.046 0 20 0 0 8.954 0 20s8.954 20 20 20z" fill-opacity=".48"/>
    <path fill-rule="evenodd" clip-rule="evenodd" d="M16.758 13.227a.5.5 0 0 0-.758.428v12.69a.5.5 0 0 0 .758.428l10.527-6.345a.5.5 0 0 0 0-.856l-10.527-6.345zM14 13.655c0-1.945 2.124-3.145 3.79-2.14l10.528 6.344c1.613.972 1.613 3.31 0 4.282L17.79 28.486C16.123 29.49 14 28.29 14 26.345v-12.69z" fill-opacity=".48"/>
</symbol></svg>